<svg xmlns="http://www.w3.org/2000/svg" viewBox="0 0 512 512" width="100%" height="100%">
  <!-- Círculo Externo Dourado Elegante -->
  <circle cx="256" cy="256" r="220" fill="none" stroke="#C19A6B" stroke-width="16" />
  
  <!-- Monograma AR Entrelaçado de Alta Costura -->
  <g fill="#C19A6B">
    <!-- Perna Esquerda do A -->
    <path d="M190 380 L245 150 L275 150 L220 380 Z" />
    <!-- Perna Direita do A / Dorso do R -->
    <path d="M245 150 L300 380 L270 380 L215 150 Z" />
    <!-- Barra Horizontal do A -->
    <rect x="205" y="295" width="75" height="14" />
    
    <!-- Bojo do R Perfeitamente Conectado -->
    <path d="M258 150 C310 150, 345 175, 345 220 C345 265, 310 290, 258 290 L245 290 L251 265 L258 265 C295 265, 315 250, 315 220 C315 190, 295 175, 258 175 Z" />
    <!-- Perna Puxada Elegante do R (Estilo Serifado) -->
    <path d="M275 285 L335 380 L305 380 L250 285 Z" />
  </g>
</svg>